<?xml version="1.0" encoding="UTF-8" standalone="no"?>
<svg
   width="9.7500019pt"
   height="8.1611233pt"
   version="1.1"
   viewBox="0 0 9.7500019 8.1611233"
   id="svg8"
   sodipodi:docname="folder-icon.svg"
   inkscape:version="1.1.1 (3bf5ae0d25, 2021-09-20)"
   xmlns:inkscape="http://www.inkscape.org/namespaces/inkscape"
   xmlns:sodipodi="http://sodipodi.sourceforge.net/DTD/sodipodi-0.dtd"
   xmlns="http://www.w3.org/2000/svg"
   xmlns:svg="http://www.w3.org/2000/svg">
  <defs
     id="defs12" />
  <sodipodi:namedview
     id="namedview10"
     pagecolor="#ffffff"
     bordercolor="#666666"
     borderopacity="1.0"
     inkscape:pageshadow="2"
     inkscape:pageopacity="0.0"
     inkscape:pagecheckerboard="0"
     inkscape:document-units="pt"
     showgrid="false"
     fit-margin-top="0"
     fit-margin-left="0"
     fit-margin-right="0"
     fit-margin-bottom="0"
     inkscape:zoom="17.76"
     inkscape:cx="2.9560811"
     inkscape:cy="10.44482"
     inkscape:window-width="1366"
     inkscape:window-height="745"
     inkscape:window-x="-8"
     inkscape:window-y="-8"
     inkscape:window-maximized="1"
     inkscape:current-layer="svg8" />
  <g
     id="g6"
     transform="matrix(0.02009248,0,0,0.02009248,-2.1575305,-1.5452323)"
     inkscape:export-filename="C:\Users\USER\Documents\Python\SPEECH TO TEXT PROJECT\folder-icon.png"
     inkscape:export-xdpi="95.999977"
     inkscape:export-ydpi="95.999977">
    <path
       d="M 575.03,198.4 H 215.49 c -12.832,0 -26.344,10.059 -29.984,22.352 l -71.445,239.98 c -3.6641,12.297 3.8281,22.352 16.684,22.352 h 359.52 c 12.809,0 26.32,-10.059 29.984,-22.352 l 71.469,-239.96 c 3.6406,-12.293 -3.875,-22.375 -16.684,-22.375 z"
       id="path2" />
    <path
       d="m 215.48,175.07 h 340.48 v -27.648 c 0,-12.832 -10.523,-23.332 -23.332,-23.332 h -197.05 c -12.809,0 -31.172,-6.9766 -40.738,-15.516 L 276.684,92.422 c -9.5664,-8.5391 -27.93,-15.516 -40.738,-15.516 h -105.23 c -12.855,0 -23.332,10.5 -23.332,23.332 l -0.004,301.09 55.742,-187.2 c 6.6523,-22.258 29.145,-39.059 52.363,-39.059 z"
       id="path4" />
  </g>
</svg>
